<?xml version="1.0" encoding="iso-8859-1"?>
<!-- Generator: Adobe Illustrator 19.0.0, SVG Export Plug-In . SVG Version: 6.00 Build 0)  -->
<svg version="1.1" id="Layer_1" xmlns="http://www.w3.org/2000/svg" xmlns:xlink="http://www.w3.org/1999/xlink" x="0px" y="0px"
	 viewBox="0 0 512 512" style="enable-background:new 0 0 512 512;" xml:space="preserve">
<g>
	<g>
		<path d="M236.946,287.828H98.358c-4.456,0-8.067,3.611-8.067,8.067s3.611,8.067,8.067,8.067h138.589
			c4.456,0,8.067-3.611,8.067-8.067S241.403,287.828,236.946,287.828z"/>
	</g>
</g>
<g>
	<g>
		<path d="M236.946,318.037H98.358c-4.456,0-8.067,3.611-8.067,8.067c0,4.456,3.611,8.067,8.067,8.067h138.589
			c4.456,0,8.067-3.611,8.067-8.067C245.014,321.648,241.403,318.037,236.946,318.037z"/>
	</g>
</g>
<g>
	<g>
		<path d="M236.946,348.247H98.358c-4.456,0-8.067,3.611-8.067,8.067c0,4.456,3.611,8.067,8.067,8.067h138.589
			c4.456,0,8.067-3.611,8.067-8.067C245.014,351.858,241.403,348.247,236.946,348.247z"/>
	</g>
</g>
<g>
	<g>
		<path d="M409.415,287.828H270.828c-4.456,0-8.067,3.611-8.067,8.067s3.611,8.067,8.067,8.067h138.587
			c4.456,0,8.067-3.611,8.067-8.067S413.871,287.828,409.415,287.828z"/>
	</g>
</g>
<g>
	<g>
		<path d="M409.415,318.037H270.828c-4.456,0-8.067,3.611-8.067,8.067c0,4.456,3.611,8.067,8.067,8.067h138.587
			c4.456,0,8.067-3.611,8.067-8.067C417.482,321.648,413.871,318.037,409.415,318.037z"/>
	</g>
</g>
<g>
	<g>
		<path d="M409.415,348.247H270.828c-4.456,0-8.067,3.611-8.067,8.067c0,4.456,3.611,8.067,8.067,8.067h138.587
			c4.456,0,8.067-3.611,8.067-8.067C417.482,351.858,413.871,348.247,409.415,348.247z"/>
	</g>
</g>
<g>
	<g>
		<path d="M409.415,142.11H98.358c-4.456,0-8.067,3.611-8.067,8.067v110.128c0,4.456,3.611,8.067,8.067,8.067h311.057
			c4.456,0,8.067-3.611,8.067-8.067V150.177C417.482,145.722,413.871,142.11,409.415,142.11z M401.348,252.239H106.425v-93.994
			h294.923V252.239z"/>
	</g>
</g>
<g>
	<g>
		<path d="M503.933,381.927h-13.659V94.205c0-14.45-11.756-26.206-26.205-26.206H45.538c-14.45,0-26.205,11.757-26.205,26.206
			v287.723H8.067c-4.456,0-8.067,3.611-8.067,8.067c0,29.78,24.226,54.006,54.006,54.006h37.002c4.456,0,8.067-3.611,8.067-8.067
			s-3.611-8.067-8.067-8.067H54.006c-18.116,0-33.3-12.784-37.007-29.805h10.401h32.549h389.707h32.55h12.796
			c-3.707,17.021-18.891,29.805-37.006,29.805H116.465c-4.456,0-8.067,3.611-8.067,8.067s3.611,8.067,8.067,8.067h341.53
			c29.779,0,54.005-24.226,54.005-54.006C512,385.539,508.389,381.927,503.933,381.927z M441.589,381.927H68.015V117.471h373.574
			V381.927z M474.138,381.927h-16.414V109.403c0-4.456-3.611-8.067-8.067-8.067H59.948c-4.456,0-8.067,3.611-8.067,8.067v272.524
			H35.467V94.205c0-5.553,4.518-10.071,10.07-10.071h418.531c5.552,0,10.07,4.518,10.07,10.071V381.927z"/>
	</g>
</g>
<g>
	<g>
		<polygon points="185.245,187.767 185.245,210.829 167.039,187.767 157.33,187.767 157.33,233.122 169.786,233.122 
			169.786,210.829 187.801,233.122 197.702,233.122 197.702,187.767 		"/>
	</g>
</g>
<g>
	<g>
		<polygon points="217.951,222.263 217.951,215.108 234.431,215.108 234.431,205.016 217.951,205.016 217.951,198.627 
			237.243,198.627 237.243,187.767 205.495,187.767 205.495,233.122 237.818,233.122 237.818,222.263 		"/>
	</g>
</g>
<g>
	<g>
		<polygon points="294.477,187.767 284.705,218.877 281.446,209.423 288.921,187.767 277.487,187.767 273.462,201.757 
			269.501,187.767 258.067,187.767 265.413,209.423 262.283,218.877 252.445,187.767 238.966,187.767 256.725,233.122 
			267.074,233.122 273.462,216.897 279.913,233.122 290.263,233.122 308.021,187.767 		"/>
	</g>
</g>
<g>
	<g>
		<path d="M342.711,213.83c-0.64-1.491-1.555-2.757-2.747-3.8c-1.193-1.044-2.63-1.95-4.312-2.716
			c-1.682-0.766-3.567-1.468-5.654-2.107c-1.322-0.426-2.503-0.787-3.546-1.086c-1.043-0.297-1.926-0.607-2.65-0.926
			c-0.725-0.319-1.278-0.67-1.661-1.053c-0.383-0.383-0.575-0.873-0.575-1.469c0-0.809,0.33-1.383,0.991-1.725
			c0.659-0.34,1.544-0.511,2.651-0.511c1.363,0,2.757,0.223,4.184,0.67c1.426,0.447,2.714,0.926,3.865,1.437
			c1.363,0.597,2.683,1.278,3.962,2.044l5.365-10.284c-1.022-0.512-2.173-1.054-3.45-1.631c-1.278-0.573-2.651-1.106-4.121-1.596
			c-1.468-0.488-2.991-0.894-4.567-1.213c-1.576-0.319-3.194-0.479-4.855-0.479c-2.258,0-4.397,0.331-6.419,0.991
			c-2.023,0.659-3.824,1.628-5.399,2.905c-1.576,1.278-2.821,2.875-3.738,4.792c-0.916,1.916-1.372,4.13-1.372,6.643
			c0,1.662,0.224,3.13,0.67,4.408c0.446,1.278,1.139,2.419,2.076,3.418c0.936,1.001,2.129,1.895,3.576,2.683
			s3.172,1.523,5.175,2.204c1.363,0.469,2.651,0.875,3.866,1.214c1.213,0.34,2.288,0.681,3.226,1.021
			c0.936,0.342,1.67,0.736,2.204,1.183c0.531,0.448,0.798,0.99,0.798,1.629c0,0.597-0.267,1.076-0.798,1.437
			c-0.534,0.364-1.48,0.544-2.844,0.544c-1.788,0-3.545-0.256-5.27-0.767c-1.724-0.511-3.269-1.086-4.632-1.725
			c-1.619-0.724-3.172-1.554-4.663-2.491l-5.365,10.924c1.363,0.809,2.843,1.533,4.439,2.172s3.258,1.192,4.983,1.661
			c1.725,0.469,3.459,0.829,5.206,1.086c1.746,0.255,3.45,0.383,5.11,0.383c2.086,0,4.162-0.246,6.228-0.735
			c2.065-0.489,3.919-1.288,5.558-2.396c1.638-1.107,2.96-2.587,3.962-4.44c1-1.852,1.502-4.141,1.502-6.867
			C343.669,217.131,343.35,215.322,342.711,213.83z"/>
	</g>
</g>
<g>
</g>
<g>
</g>
<g>
</g>
<g>
</g>
<g>
</g>
<g>
</g>
<g>
</g>
<g>
</g>
<g>
</g>
<g>
</g>
<g>
</g>
<g>
</g>
<g>
</g>
<g>
</g>
<g>
</g>
</svg>
